<svg xmlns="http://www.w3.org/2000/svg" viewBox="0 0 96 88" role="img" aria-label="hot fudge sundae nyan cat">
  <path d="M22 47 C5 42 9 25 25 31" fill="none" stroke="#713c1b" stroke-width="9" stroke-linecap="round"/>
  <path d="M22 47 C7 42 11 27 25 31" fill="none" stroke="#7f7f7f" stroke-width="5" stroke-linecap="round"/>
  <rect x="19" y="21" width="50" height="42" rx="6" fill="#fff4d0" stroke="#713c1b" stroke-width="5"/>
  <rect x="26" y="28" width="36" height="28" rx="2" fill="#fffbea"/>
  <path d="M31 34c10 13 21 13 28 0M31 51c10-13 21-13 28 0" stroke="#ff8a24" stroke-width="4" fill="none"/>
  <rect x="25" y="58" width="10" height="14" rx="4" fill="#7f7f7f" stroke="#713c1b" stroke-width="3"/>
  <rect x="55" y="58" width="10" height="14" rx="4" fill="#7f7f7f" stroke="#713c1b" stroke-width="3"/>
  <path d="M66 34 C82 31 84 17 72 22" fill="none" stroke="#713c1b" stroke-width="7" stroke-linecap="round"/>
  <path d="M66 31 L73 17 L80 32 Z" fill="#7f7f7f" stroke="#713c1b" stroke-width="4" stroke-linejoin="round"/>
  <path d="M84 32 L90 17 L95 33 Z" fill="#7f7f7f" stroke="#713c1b" stroke-width="4" stroke-linejoin="round"/>
  <rect x="64" y="30" width="32" height="31" rx="10" fill="#7f7f7f" stroke="#713c1b" stroke-width="4"/>
  <circle cx="75" cy="43" r="5" fill="#171414"/>
  <circle cx="88" cy="43" r="5" fill="#171414"/>
  <circle cx="76.8" cy="41.4" r="1.5" fill="#ffffff" opacity=".9"/>
  <circle cx="89.8" cy="41.4" r="1.5" fill="#ffffff" opacity=".9"/>
  <rect x="79" y="52" width="8" height="4" rx="2" fill="#ff7f8f"/>
  <rect x="65" y="48" width="5" height="8" rx="2" fill="#ff8fa3" opacity=".9"/>
  <rect x="91" y="48" width="5" height="8" rx="2" fill="#ff8fa3" opacity=".9"/>
  <path d="M67 53h-10M68 57h-10" stroke="#713c1b" stroke-width="2.4" stroke-linecap="round"/>
</svg>
